<mxfile host="app.diagrams.net" modified="2024-05-15T20:30:15.964Z" agent="Mozilla/5.0 (Windows NT 10.0; Win64; x64) AppleWebKit/537.36 (KHTML, like Gecko) Chrome/124.0.0.0 Safari/537.36" version="24.4.0" etag="lIAm-saRCYCP1KAv3nYP" type="github">
  <diagram name="Page-1" id="19chcCCTZoaIUuIzNunD">
    <mxGraphModel>
      <root>
        <mxCell id="0" />
        <mxCell id="1" parent="0" />
      </root>
    </mxGraphModel>
  </diagram>
</mxfile>
